# xmcd CD database file
#
# Track frame offsets:
#	150
#	20237
#	39200
#	55637
#	74925
#	98037
#	117000
#	136050
#	156975
#	172900
#
# Disc length: 2616 seconds
#
# Revision: 0
# Processed by: cddbd v1.4PL0 Copyright (c) Steve Scherf et al.
# Submitted via: CDex 1.50Beta6
#
DISCID=800a360a
DTITLE=林隆璇 - 收藏昨日
DYEAR=1993
DGENRE=Blues
TTITLE0=你已不像你
TTITLE1=在你心底流浪
TTITLE2=當年
TTITLE3=交心
TTITLE4=每一種溫柔
TTITLE5=天不是說變就變
TTITLE6=白圍牆下的白薔薇
TTITLE7=不懂愛情
TTITLE8=我們會永遠
TTITLE9=早老少年
EXTD=YEAR: 1993
EXTT0=
EXTT1=
EXTT2=
EXTT3=
EXTT4=
EXTT5=
EXTT6=
EXTT7=
EXTT8=
EXTT9=
PLAYORDER=
